<svg xmlns="http://www.w3.org/2000/svg" width="44" height="77" viewBox="0 0 44 77">
    <g fill="#000" fill-rule="nonzero">
        <path d="M18.083 6.016a1.203 1.203 0 1 0 0-2.407h-.012c-.664 0-1.196.538-1.196 1.204 0 .665.544 1.203 1.208 1.203zM21.656 6.016h3.61a1.202 1.202 0 1 0 0-2.407h-3.61a1.202 1.202 0 1 0 0 2.407z"/>
        <path d="M43.313 68.578V7.221c0-3.976-3.23-7.209-7.204-7.217-.004 0-.01-.004-.015-.004H7.219A7.226 7.226 0 0 0 0 7.219v61.36C0 73.22 3.779 77 8.422 77H34.89c4.642 0 8.422-3.779 8.422-8.422zm-2.407-8.422h-38.5V9.627h38.5v50.53zm-38.5 2.407h38.5v1.203a6.022 6.022 0 0 1-6.015 6.015H8.422a6.022 6.022 0 0 1-6.016-6.015v-1.203zM7.22 2.406h28.863c.005 0 .007.003.012.003a4.817 4.817 0 0 1 4.812 4.812h-38.5V7.22A4.817 4.817 0 0 1 7.22 2.406zM34.89 74.594H8.42c-2.908 0-5.339-2.077-5.894-4.825a8.394 8.394 0 0 0 5.895 2.418H34.89a8.394 8.394 0 0 0 5.895-2.418c-.556 2.748-2.986 4.825-5.895 4.825z"/>
        <path d="M18.047 66.172c0 1.99 1.62 3.61 3.61 3.61 1.99 0 3.609-1.62 3.609-3.61 0-1.99-1.62-3.61-3.61-3.61-1.99 0-3.61 1.62-3.61 3.61zm3.61-1.203a1.204 1.204 0 1 1-.002 2.407 1.204 1.204 0 0 1 .001-2.407zM10.828 51.732h21.656a6.022 6.022 0 0 0 6.016-6.016V24.06a6.022 6.022 0 0 0-6.016-6.016H10.828a6.022 6.022 0 0 0-6.015 6.016v21.656a6.022 6.022 0 0 0 6.015 6.016zM7.218 24.06c0-1.99 1.62-3.61 3.61-3.61h21.656c1.99 0 3.61 1.62 3.61 3.61v21.656c0 1.99-1.62 3.61-3.61 3.61H10.828c-1.99 0-3.61-1.62-3.61-3.61V24.06z"/>
        <path d="M16.845 38.502a1.202 1.202 0 0 0 .85-2.054l-1.554-1.554 1.555-1.555a1.202 1.202 0 1 0-1.702-1.702l-2.405 2.407c-.47.47-.47 1.23 0 1.7l2.405 2.406a1.2 1.2 0 0 0 .851.352zM25.625 38.15a1.2 1.2 0 0 0 1.702 0l2.405-2.405c.47-.47.47-1.231 0-1.701l-2.405-2.407a1.202 1.202 0 1 0-1.702 1.702l1.555 1.555-1.555 1.555c-.47.47-.47 1.23 0 1.7zM20.077 39.644a1.203 1.203 0 0 0 1.522-.76l2.403-7.219a1.202 1.202 0 1 0-2.282-.762l-2.405 7.22c-.21.63.131 1.312.762 1.521z"/>
        <path d="M21.656 48.125c7.297 0 13.235-5.937 13.235-13.234s-5.938-13.235-13.235-13.235S8.422 27.594 8.422 34.891s5.937 13.234 13.234 13.234zm0-24.063c5.971 0 10.828 4.858 10.828 10.829 0 5.97-4.857 10.828-10.828 10.828-5.97 0-10.828-4.857-10.828-10.828 0-5.971 4.857-10.828 10.828-10.828z"/>
    </g>
</svg>
