<svg xmlns="http://www.w3.org/2000/svg" width="56" height="74" viewBox="0 0 56 74">
    <g fill="#000" fill-rule="nonzero">
        <path d="M21 17a5 5 0 1 0 0 10 5 5 0 0 0 0-10zm0 7.5a2.5 2.5 0 0 1-2.5-2.5 2.5 2.5 0 0 1 2.5-2.488V19.5a2.5 2.5 0 1 1 0 5zM35 17a5 5 0 1 0 0 10 5 5 0 0 0 0-10zm0 7.5a2.5 2.5 0 0 1-2.5-2.5 2.5 2.5 0 0 1 2.5-2.488V19.5a2.5 2.5 0 1 1 0 5z"/>
        <path d="M50.887 22.315a6.98 6.98 0 0 0-5.917-5.687c-.824-3.067-3.199-5.682-7.973-5.682H29.75V8.18c2.192-.694 3.41-3.045 2.72-5.25S29.44-.5 27.248.194c-2.192.695-3.41 3.045-2.72 5.25a4.174 4.174 0 0 0 2.72 2.736v2.703h-7.236c-3.374 0-6.923 1.56-7.998 5.683-3.809.526-6.472 4.058-5.95 7.89a6.984 6.984 0 0 0 5.663 5.938l-.013.063C12.09 35.976 16.165 38 20.001 38h16.996c5.711 0 7.998-3.771 8.286-7.543 3.782-.692 6.291-4.337 5.604-8.142zm-39.21 5.628c-2.36-.687-3.72-3.168-3.038-5.542a4.462 4.462 0 0 1 3.039-3.057v8.599zm15.16-23.685c0-.923.744-1.672 1.662-1.672.918 0 1.662.749 1.662 1.672 0 .924-.744 1.672-1.662 1.672a1.667 1.667 0 0 1-1.662-1.672zM42.82 29.552c0 2.187-.763 5.858-5.824 5.858H20.013c-2.174 0-5.823-.767-5.823-5.858l-.013-10.208c0-5.104 3.65-5.858 5.824-5.858h16.996c5.074 0 5.824 3.67 5.824 5.858v10.208zm2.45-1.697v-8.6a4.484 4.484 0 0 1 3.223 4.3 4.484 4.484 0 0 1-3.224 4.3z"/>
        <path d="M35.735 30h-14.47c-.699 0-1.265.672-1.265 1.5s.566 1.5 1.265 1.5h14.47c.699 0 1.265-.672 1.265-1.5s-.566-1.5-1.265-1.5zM56 39.94c-.024-2.72-2.229-4.904-4.925-4.88-2.255.02-4.204 1.597-4.712 3.814l-3.36.66H13.012l-3.36-.66c-.575-2.657-3.177-4.34-5.81-3.76-2.634.581-4.303 3.206-3.727 5.862a4.906 4.906 0 0 0 3.524 3.71v9.481a4.917 4.917 0 0 0-3.624 4.734v2.246c0 .701.564 1.27 1.258 1.27.695 0 1.259-.569 1.259-1.27v-2.259a2.376 2.376 0 0 1 2.365-2.386 2.376 2.376 0 0 1 2.365 2.386v2.26c0 .7.563 1.268 1.258 1.268.695 0 1.258-.568 1.258-1.269v-2.259a4.917 4.917 0 0 0-3.623-4.734v-9.48a4.888 4.888 0 0 0 3.372-3.249l2.1.419v15.66a16.532 16.532 0 0 0 1.41 6.664v.114c3.714 8.306 13.4 12.001 21.634 8.254a16.428 16.428 0 0 0 8.183-8.254l.063-.14a16.518 16.518 0 0 0 1.447-6.637V41.844l2.1-.419a4.888 4.888 0 0 0 3.372 3.249v9.48a4.917 4.917 0 0 0-3.623 4.734v2.26c0 .7.563 1.268 1.258 1.268.695 0 1.258-.568 1.258-1.269v-2.259a2.376 2.376 0 0 1 2.368-2.384 2.376 2.376 0 0 1 2.363 2.384v2.26c0 .7.563 1.268 1.258 1.268.695 0 1.258-.568 1.258-1.269v-2.259a4.917 4.917 0 0 0-3.624-4.734v-9.48c2.139-.563 3.635-2.505 3.649-4.734zM4.896 42.326A2.376 2.376 0 0 1 2.53 39.94a2.376 2.376 0 0 1 2.365-2.386A2.376 2.376 0 0 1 7.26 39.94a2.376 2.376 0 0 1-2.365 2.386zm23.111 29.152c-4.74 0-9.15-2.447-11.688-6.486h23.376a13.812 13.812 0 0 1-11.688 6.486zm13.84-13.96a14.066 14.066 0 0 1-.92 4.949H15.062a14.066 14.066 0 0 1-.918-4.95V42.072h27.703v15.445zm9.285-15.192h-.013l-.026-.038a2.376 2.376 0 0 1-2.365-2.386 2.376 2.376 0 0 1 2.365-2.386 2.376 2.376 0 0 1 2.366 2.386 2.376 2.376 0 0 1-2.327 2.424z"/>
        <path d="M32.597 51.248a1.194 1.194 0 0 0-.816-.329h-3.667l4.498-4.825a1.316 1.316 0 0 0-.156-1.798 1.183 1.183 0 0 0-1.592.024l-6.515 6.995a1.317 1.317 0 0 0 .018 1.805c.23.236.54.367.862.365h3.765l-4.632 5.386a1.317 1.317 0 0 0 .085 1.8c.5.471 1.27.431 1.724-.09l6.514-7.53a1.317 1.317 0 0 0-.088-1.803z"/>
    </g>
</svg>
