<svg xmlns="http://www.w3.org/2000/svg" width="25" height="25" viewBox="0 0 25 25">
    <g fill="#000" fill-rule="nonzero">
        <path d="M12.5 0C5.608 0 0 5.607 0 12.5S5.608 25 12.5 25 25 19.393 25 12.5 19.392 0 12.5 0zm0 24.038C6.138 24.038.962 18.862.962 12.5S6.138.962 12.5.962 24.038 6.138 24.038 12.5 18.862 24.038 12.5 24.038z"/>
        <path d="M17.167 7.833a.48.48 0 0 0-.68 0L12.5 11.82 8.513 7.833a.48.48 0 1 0-.68.68L11.82 12.5l-3.987 3.987a.48.48 0 1 0 .68.68L12.5 13.18l3.987 3.987a.48.48 0 0 0 .68 0 .48.48 0 0 0 0-.68L13.18 12.5l3.987-3.987a.48.48 0 0 0 0-.68z"/>
    </g>
</svg>
