<svg xmlns="http://www.w3.org/2000/svg" width="22" height="15" viewBox="0 0 22 15">
    <g fill="#929292" fill-rule="nonzero">
        <path d="M0 6v7.714C0 14.424.617 15 1.375 15h19.25c.759 0 1.375-.576 1.375-1.286V6H0zm7.563 5.143H3.438c-.38 0-.688-.288-.688-.643 0-.355.308-.643.688-.643h4.124c.38 0 .688.288.688.643 0 .355-.308.643-.688.643zm9.625 1.286a2.13 2.13 0 0 1-1.375-.5 2.13 2.13 0 0 1-1.376.5c-1.138 0-2.062-.864-2.062-1.929s.924-1.929 2.063-1.929c.53 0 1.009.193 1.374.5a2.13 2.13 0 0 1 1.376-.5c1.138 0 2.062.864 2.062 1.929s-.924 1.929-2.063 1.929zM20.625 0H1.375C.617 0 0 .673 0 1.5V3h22V1.5c0-.827-.616-1.5-1.375-1.5z"/>
    </g>
</svg>
