<svg xmlns="http://www.w3.org/2000/svg" width="77" height="76" viewBox="0 0 77 76">
    <g fill="#000" fill-rule="nonzero">
        <path d="M3.85 18.007h51.333c2.182 0 3.85-1.669 3.85-3.85V3.89c0-2.182-1.668-3.85-3.85-3.85H3.85C1.668.04 0 1.708 0 3.89v10.267c0 2.181 1.668 3.85 3.85 3.85zM2.567 3.89c0-.77.513-1.283 1.283-1.283h51.333c.77 0 1.284.513 1.284 1.283v10.267c0 .77-.514 1.283-1.284 1.283H3.85c-.77 0-1.283-.513-1.283-1.283V3.89zM3.85 37.257h51.333c2.182 0 3.85-1.669 3.85-3.85V23.14c0-2.182-1.668-3.85-3.85-3.85H3.85C1.668 19.29 0 20.958 0 23.14v10.267c0 2.181 1.668 3.85 3.85 3.85zM2.567 23.14c0-.77.513-1.283 1.283-1.283h51.333c.77 0 1.284.513 1.284 1.283v10.267c0 .77-.514 1.283-1.284 1.283H3.85c-.77 0-1.283-.513-1.283-1.283V23.14zM73.15 38.54H21.817c-2.182 0-3.85 1.668-3.85 3.85v3.85h-7.7c-.77 0-1.284.513-1.284 1.283 0 .77.514 1.284 1.284 1.284h7.7v3.85c0 2.181 1.668 3.85 3.85 3.85H73.15c2.182 0 3.85-1.669 3.85-3.85V42.39c0-2.182-1.668-3.85-3.85-3.85zm1.283 14.117c0 .77-.513 1.283-1.283 1.283H21.817c-.77 0-1.284-.513-1.284-1.283v-3.85h5.904l-1.669 1.668a1.24 1.24 0 0 0 0 1.797c.257.256.514.385.899.385s.641-.129.898-.385l3.63-3.63c.378-.21.605-.607.605-1.119 0-.511-.227-.908-.605-1.118l-3.63-3.63a1.24 1.24 0 0 0-1.797 0 1.24 1.24 0 0 0 0 1.797l1.669 1.668h-5.904v-3.85c0-.77.514-1.283 1.284-1.283H73.15c.77 0 1.283.513 1.283 1.283v10.267zM55.183 57.79H3.85C1.668 57.79 0 59.458 0 61.64v10.267c0 2.182 1.668 3.85 3.85 3.85h51.333c2.182 0 3.85-1.668 3.85-3.85V61.64c0-2.182-1.668-3.85-3.85-3.85zm1.284 14.117c0 .77-.514 1.283-1.284 1.283H3.85c-.77 0-1.283-.513-1.283-1.283V61.64c0-.77.513-1.283 1.283-1.283h51.333c.77 0 1.284.513 1.284 1.283v10.267z"/>
        <path d="M68.017 46.24h-30.8c-.77 0-1.284.513-1.284 1.283 0 .77.514 1.284 1.284 1.284h30.8c.77 0 1.283-.514 1.283-1.284s-.513-1.283-1.283-1.283zM19.25 29.557h30.8c.77 0 1.283-.514 1.283-1.284s-.513-1.283-1.283-1.283h-30.8c-.77 0-1.283.513-1.283 1.283 0 .77.513 1.284 1.283 1.284zM10.267 30.84a2.574 2.574 0 0 0 2.566-2.567 2.574 2.574 0 0 0-2.566-2.566A2.574 2.574 0 0 0 7.7 28.273a2.574 2.574 0 0 0 2.567 2.567zM19.25 10.307h30.8c.77 0 1.283-.514 1.283-1.284S50.82 7.74 50.05 7.74h-30.8c-.77 0-1.283.513-1.283 1.283 0 .77.513 1.284 1.283 1.284zM10.267 11.59a2.574 2.574 0 0 0 2.566-2.567 2.574 2.574 0 0 0-2.566-2.566A2.574 2.574 0 0 0 7.7 9.023a2.574 2.574 0 0 0 2.567 2.567zM50.05 65.49h-30.8c-.77 0-1.283.513-1.283 1.283 0 .77.513 1.284 1.283 1.284h30.8c.77 0 1.283-.514 1.283-1.284s-.513-1.283-1.283-1.283zM10.267 64.207A2.574 2.574 0 0 0 7.7 66.773a2.574 2.574 0 0 0 2.567 2.567 2.574 2.574 0 0 0 2.566-2.567 2.574 2.574 0 0 0-2.566-2.566z"/>
    </g>
</svg>
