<svg xmlns="http://www.w3.org/2000/svg" width="70" height="70" viewBox="0 0 70 70">
    <g fill="#000" fill-rule="nonzero">
        <path d="M70 21.451a3.391 3.391 0 0 0-3.387-3.387c-.388 0-.757.08-1.104.2l-5.06-6.324a3.352 3.352 0 0 0 .519-1.779 3.391 3.391 0 0 0-3.387-3.387c-.95 0-1.806.395-2.421 1.025l-8.9-4.107c.009-.102.03-.2.03-.305A3.391 3.391 0 0 0 42.903 0c-1.47 0-2.712.947-3.18 2.258H26.89A3.382 3.382 0 0 0 23.709 0a3.391 3.391 0 0 0-3.386 3.387c0 .14.024.274.041.411l-5.6 2.8a3.371 3.371 0 0 0-2.345-.953 3.391 3.391 0 0 0-3.387 3.387c0 .655.196 1.261.518 1.78l-5.059 6.323c-.347-.12-.716-.2-1.104-.2A3.391 3.391 0 0 0 0 20.322c0 1.47.947 2.712 2.258 3.18v7.19A3.38 3.38 0 0 0 0 33.87a3.391 3.391 0 0 0 3.387 3.387 3.377 3.377 0 0 0 2.924-1.708l6.164 1.12a3.383 3.383 0 0 0 3.331 2.846c.046 0 .089-.01.134-.013l2.154 5.386a3.365 3.365 0 0 0-1.159 2.53 3.391 3.391 0 0 0 3.388 3.388 3.38 3.38 0 0 0 2.751-1.426l9.69 2.768A3.374 3.374 0 0 0 35 55.114v8.32a3.382 3.382 0 0 0-2.258 3.179A3.391 3.391 0 0 0 36.129 70a3.391 3.391 0 0 0 3.387-3.387c0-1.47-.947-2.712-2.258-3.18v-8.32a3.382 3.382 0 0 0 2.258-3.178c0-1.082-.52-2.036-1.31-2.657l1.347-4.045 10.131 3.377a3.38 3.38 0 0 0 2.251 3.116v11.707a3.382 3.382 0 0 0-2.258 3.179 3.391 3.391 0 0 0 3.388 3.387 3.391 3.391 0 0 0 3.387-3.387c0-1.47-.948-2.712-2.258-3.18V51.728a3.382 3.382 0 0 0 2.258-3.18c0-.411-.085-.802-.22-1.168l8.663-7.219c.504.3 1.088.485 1.718.485A3.391 3.391 0 0 0 70 37.257c0-1.47-.947-2.711-2.258-3.179V24.63A3.38 3.38 0 0 0 70 21.451zM57.58 9.032a1.13 1.13 0 0 1 0 2.258 1.13 1.13 0 0 1 0-2.258zm-1.605 4.093c.48.262 1.022.423 1.606.423.388 0 .755-.079 1.103-.2l5.059 6.325a3.357 3.357 0 0 0-.517 1.778c0 .182.026.357.054.532l-7.998 4.363-5.825-4.854c.136-.367.22-.758.22-1.17 0-.458-.093-.896-.26-1.295l6.558-5.902zm-14.2 18.487c-.522 0-1.01.128-1.452.34L35.54 27.17l8.445-4.38c.606.567 1.412.92 2.305.92.63 0 1.213-.184 1.719-.484l5.14 4.283-9.126 4.978a3.357 3.357 0 0 0-2.249-.874zM42.902 35a1.13 1.13 0 0 1-2.258 0 1.13 1.13 0 0 1 2.258 0zm-17.07-12.433l1.896 6.108-9.617 4.986a3.384 3.384 0 0 0-1.445-.794l-1.565-12 7.736-.387a3.385 3.385 0 0 0 2.995 2.087zm-.994-3.373a1.13 1.13 0 0 1 2.258 0 1.13 1.13 0 0 1-2.258 0zm3.569 11.673l2.863 9.228-12.084-4.029c-.002-.135-.023-.266-.04-.397l9.26-4.802zm-.008-7.643l3.362 3.36-1.997 1.036-1.365-4.396zm.616-2.579c.211-.441.339-.93.339-1.45 0-.482-.104-.938-.285-1.352l5.361-5.004 8.642 6.48c-.1.321-.17.653-.17 1.004 0 .158.026.308.047.46l-9.086 4.711-4.848-4.849zm16.145-.322a1.13 1.13 0 0 1 2.258 0 1.13 1.13 0 0 1-2.258 0zm9.854 8.741l8.09 6.741-17.528-1.593 9.438-5.148zM42.903 2.258a1.13 1.13 0 0 1 0 2.258 1.13 1.13 0 0 1 0-2.258zM41.352 6.38c.466.243.989.394 1.551.394.95 0 1.806-.395 2.422-1.026l8.899 4.107c-.009.103-.03.201-.03.306 0 .46.093.897.26 1.296l-6.558 5.902a3.336 3.336 0 0 0-1.606-.424c-.693 0-1.338.211-1.875.57l-8.307-6.23 5.244-4.895zm-1.628-1.864c.027.073.046.15.077.221l-5.53 5.16-7.174-5.38h12.627zM23.71 2.258a1.13 1.13 0 0 1 0 2.258 1.13 1.13 0 0 1 0-2.258zm-7.904 6.774c0-.14-.024-.274-.041-.41l5.6-2.8a3.366 3.366 0 0 0 4.22.382l7.01 5.258-5.076 4.737a3.345 3.345 0 0 0-1.551-.393c-1.529 0-2.81 1.024-3.23 2.417l-7.93.397-.858-6.584a3.378 3.378 0 0 0 1.856-3.004zM12.42 7.903a1.13 1.13 0 0 1 0 2.258 1.13 1.13 0 0 1 0-2.258zm-1.104 4.316c.131.045.26.094.396.123l.834 6.392-6.028.301a3.363 3.363 0 0 0-.261-.492l5.06-6.324zm-7.928 6.974a1.13 1.13 0 0 1 0 2.258 1.13 1.13 0 0 1 0-2.258zm0 15.806a1.13 1.13 0 0 1 0-2.258 1.13 1.13 0 0 1 0 2.258zm9.495-.55L6.72 33.33a3.38 3.38 0 0 0-2.204-2.638v-7.19a3.382 3.382 0 0 0 2.1-2.21l6.223-.312 1.574 12.07a3.39 3.39 0 0 0-1.53 1.4zm2.924 2.808a1.13 1.13 0 0 1 0-2.258 1.13 1.13 0 0 1 0 2.258zm4.517 11.29a1.13 1.13 0 0 1 0-2.257 1.13 1.13 0 0 1 0 2.258zm13.056 1.427l-9.69-2.769c-.114-1.767-1.571-3.173-3.366-3.173-.046 0-.088.01-.134.013l-2.154-5.386c.157-.14.3-.29.43-.455l13.631 4.544 2.013 6.485c-.279.21-.527.457-.73.74zm2.75 17.767a1.13 1.13 0 0 1 0-2.258 1.13 1.13 0 0 1 0 2.258zm0-14.677a1.13 1.13 0 0 1 0-2.258 1.13 1.13 0 0 1 0 2.258zm.038-4.814l-1.435-4.623 2.678.893-1.243 3.73zm1.958-5.872l-4.216-1.406-3.464-11.162 2.992-1.55 5.29 5.289c-.212.441-.34.929-.34 1.45 0 1.082.52 2.037 1.312 2.657l-1.574 4.722zm14.94 25.363a1.13 1.13 0 0 1 0-2.258 1.13 1.13 0 0 1 0 2.258zm0-18.064a1.13 1.13 0 0 1 0-2.258 1.13 1.13 0 0 1 0 2.258zm1.718-4.033a3.362 3.362 0 0 0-1.718-.483c-1.082 0-2.037.519-2.657 1.311l-10.141-3.38 1.57-4.712a3.379 3.379 0 0 0 3.005-1.968l18.5 1.68c.03.114.063.224.104.333l-8.663 7.219zm2.365-17.745l7.216-3.936c.324.292.702.517 1.121.666v9.45a3.397 3.397 0 0 0-.59.276l-7.747-6.456zm9.465 10.487a1.13 1.13 0 0 1 0-2.258 1.13 1.13 0 0 1 0 2.258zm0-15.806a1.13 1.13 0 0 1 0-2.258 1.13 1.13 0 0 1 0 2.258zM2 0h2v2H2zM2 5h2v2H2zM5 2h2v2H5zM0 2h2v2H0z"/>
        <path d="M59 52h2v2h-2zM59 56h2v2h-2zM61 54h2v2h-2zM56 54h2v2h-2zM65 5h2v2h-2zM65 9h2v2h-2zM68 7h2v2h-2zM63 7h2v2h-2zM14 54h2v2h-2zM14 59h2v2h-2zM16 56h2v2h-2zM11 56h2v2h-2zM7 42h2v2H7zM7 46h2v2H7zM9 44h2v2H9zM5 44h2v2H5z"/>
    </g>
</svg>
