<svg xmlns="http://www.w3.org/2000/svg" width="16" height="21" viewBox="0 0 16 21">
    <path fill="#929292" fill-rule="nonzero" d="M14.266 15.011l-3.323-1.671a.921.921 0 0 1-.508-.828v-1.184c.08-.098.163-.21.25-.332a8.029 8.029 0 0 0 1.027-2.03c.491-.226.81-.715.81-1.266V6.3a1.4 1.4 0 0 0-.348-.919V3.52c.02-.193.096-1.339-.728-2.284C10.732.416 9.573 0 8 0 6.427 0 5.268.416 4.554 1.236c-.824.945-.747 2.091-.728 2.284V5.38a1.4 1.4 0 0 0-.348.919v1.4c0 .426.193.823.521 1.088a7.363 7.363 0 0 0 1.218 2.533v1.158c0 .34-.183.65-.479.812l-3.103 1.703A3.16 3.16 0 0 0 0 17.767V18.9C0 20.561 5.233 21 8 21c2.767 0 8-.439 8-2.1v-1.065a3.143 3.143 0 0 0-1.734-2.824z"/>
</svg>
