<svg xmlns="http://www.w3.org/2000/svg" width="64" height="65" viewBox="0 0 64 65">
    <g fill="#000" fill-rule="nonzero">
        <path d="M16 12c0 1.71 2.364 3 5.5 3s5.5-1.29 5.5-3-2.364-3-5.5-3-5.5 1.29-5.5 3zm5.5-1c2.13 0 3.3.751 3.3 1s-1.17 1-3.3 1-3.3-.751-3.3-1 1.17-1 3.3-1zM37 39c0 1.71 2.364 3 5.5 3s5.5-1.29 5.5-3-2.364-3-5.5-3-5.5 1.29-5.5 3zm8.8 0c0 .249-1.17 1-3.3 1s-3.3-.751-3.3-1 1.17-1 3.3-1 3.3.751 3.3 1z"/>
        <path d="M63.99 37.913a1.038 1.038 0 0 0-.045-.225 1.083 1.083 0 0 0-.617-1.3l-6.022-2.536c-.576-1.433-2.63-2.438-5.244-2.438-.775 0 .29.36-4.423-1.625-.349-1.362-2.007-2.394-4.252-2.647 0-17.764.042-16.96-.085-17.26a1.13 1.13 0 0 0-.57-.574c-.208-.09.007 0-6.03-2.541-.576-1.429-2.63-2.434-5.244-2.434-.775 0 .29.36-4.423-1.625-.933-3.608-9.74-3.613-10.673 0-4.704 1.98-3.646 1.625-4.424 1.625-2.614 0-4.663 1.005-5.244 2.434C3.67 8.042.513 9.367.664 9.308c-.232.1-.42.283-.528.513-.188.371-.126-2.146-.126 36.758 0 .436.261.83.663.998 43.489 18.29 41.147 17.416 41.63 17.416.366 0-.999.512 21.024-8.75a.844.844 0 0 0 .467-.412c.271-.408.197.895.197-17.918zm-20.603 8.854l18.435-7.754v15.512L43.387 62.28V46.767zm11.928-12.104c0 .27-1.154 1.083-3.253 1.083-2.1 0-3.253-.813-3.253-1.083s1.153-1.083 3.253-1.083 3.253.813 3.253 1.083zm-3.253 3.25a6.185 6.185 0 0 0 4.915-1.852l3.137 1.32-17.812 7.492-17.811-7.492 3.137-1.32a6.185 6.185 0 0 0 4.914 1.852c5.293 0 6.96-3.683 3.896-5.55l1.101-.464c1.988 2.246 7.54 2.245 9.526 0l1.102.463c-3.095 1.884-1.335 5.55 3.895 5.55zm-15.096-8.124c-4.705 1.98-3.646 1.625-4.424 1.625-2.614 0-4.663 1.005-5.244 2.434l-4.515 1.898v-16.06l18.435-7.753v15.21c-2.246.252-3.904 1.284-4.252 2.646zm-4.424 3.791c2.1 0 3.254.813 3.254 1.083s-1.154 1.083-3.254 1.083-3.253-.813-3.253-1.083 1.154-1.083 3.253-1.083zM2.18 11.933l18.435 7.754v16.06l-18.435-7.75V11.933zM45.555 30.33c0 .27-1.153 1.084-3.253 1.084S39.05 30.6 39.05 30.33c0-.27 1.154-1.083 3.253-1.083 2.1 0 3.253.814 3.253 1.083zM34.711 7.583c0 .27-1.154 1.083-3.253 1.083-2.1 0-3.253-.814-3.253-1.083 0-.27 1.153-1.084 3.253-1.084s3.253.814 3.253 1.084zM21.698 2.167c2.1 0 3.253.813 3.253 1.083s-1.153 1.083-3.253 1.083-3.253-.813-3.253-1.083 1.154-1.083 3.253-1.083zm-4.763 2.651c1.988 2.247 7.54 2.246 9.526 0l1.102.464a2.766 2.766 0 0 0-1.527 2.3c0 3.634 8.068 4.392 10.337 1.398l3.136 1.32-17.81 7.492L3.887 10.3l3.136-1.32C9.29 11.97 17.36 11.219 17.36 7.583a2.766 2.766 0 0 0-1.526-2.301l1.101-.464zM11.938 6.5c2.1 0 3.254.814 3.254 1.084 0 .27-1.154 1.083-3.254 1.083s-3.253-.814-3.253-1.083c0-.27 1.154-1.084 3.253-1.084zm-9.76 23.849l19.097 8.032 19.943 8.387V62.28l-39.04-16.42V30.348z"/>
        <path d="M38.31 56.826L14.534 46.104a1.045 1.045 0 0 0-1.09.113c-.317.24-.484.641-.436 1.046.048.406.304.752.668.905L37.452 58.89c.357.179.78.14 1.1-.102.321-.242.49-.647.44-1.056a1.118 1.118 0 0 0-.682-.905zM9.4 43.676l-3-1.575c-.506-.267-1.096.013-1.316.627-.221.614.01 1.329.517 1.596L8.6 45.9a.858.858 0 0 0 .994-.136c.287-.257.44-.681.4-1.112-.04-.43-.267-.802-.595-.975z"/>
    </g>
</svg>
