<svg xmlns="http://www.w3.org/2000/svg" width="224" height="72" viewBox="0 0 224 72">
    <defs>
        <linearGradient id="a" x1="50%" x2="50%" y1="0%" y2="100%">
            <stop offset="0%" stop-color="#080808"/>
            <stop offset="100%" stop-color="#0F0F0F"/>
        </linearGradient>
        <linearGradient id="b" x1="50%" x2="50%" y1="100%" y2="0%">
            <stop offset="0%" stop-color="#2B5972"/>
            <stop offset="100%" stop-color="#427FA2"/>
        </linearGradient>
    </defs>
    <g fill="none" fill-rule="nonzero">
        <path fill="url(#a)" d="M0 43.017L17.149 25l12.664 13.225-4.397 4.792-1.32-1.383-3.693 3.825 5.98 6.359h7.343l-6.86-7.327 4.398-4.746L62 72H27.702z"/>
        <path fill="url(#b)" d="M66 28.983L48.851 47 36.187 33.776l4.397-4.793 1.32 1.383 3.693-3.825-5.98-6.359h-7.343l6.86 7.327-4.398 4.746L4 0h34.298z"/>
        <g fill="#0B0B0B">
            <path d="M93.52 35.09L91.4 44.683H78.006l10.848-40.82C89.4 1.674 91.156.258 93.278.258h11.939c2.12 0 3.878 1.416 4.424 3.605l10.847 40.82h-13.393l-2.121-9.593H93.52zm7.273-19.316c-.303-1.61-.606-3.477-.728-5.086H98.43c-.182 1.61-.424 3.476-.727 5.086l-2.06 9.53h7.211l-2.06-9.53zM136.121 31.291c0 1.352.97 2.318 2.546 2.318h14.06l.605 10.43c-6.242.901-13.574.901-20.423.901-6.06 0-9.938-4.12-9.938-10.108V.258h13.15v31.033zM188.116 44.104c-6.06.836-14.545.836-21.756.836-5.757 0-9.818-4.12-9.818-10.108V10.108c0-5.987 4.06-10.108 9.818-10.108 7.211 0 15.696 0 21.756.837l-.606 9.851h-15.332c-1.515 0-2.485.966-2.485 2.318v4.313h15.636v9.272h-15.636v5.344c0 1.351.97 2.318 2.485 2.318h15.332l.606 9.851zM208.597 10.688c-1.636 0-2.606.966-2.606 2.318v5.215h14.97v9.272h-14.97v17.19h-13.15V10.108C192.84 4.121 196.96 0 202.779 0c6.97 0 15.272 0 21.03.902l-.606 9.786h-14.606z"/>
        </g>
        <g fill="#0B0B0B">
            <path d="M78.09 62.359a29.84 29.84 0 0 1 2.66-.121c2.162 0 2.93 1.21 2.93 4.756 0 3.547-.768 4.756-2.93 4.756-1.024 0-1.881-.053-2.66-.12v-9.271zm.723 8.585c.557.014 1.192.027 1.938.027 1.615 0 2.16-1.008 2.16-3.977 0-2.97-.545-3.99-2.16-3.99-.746 0-1.359.026-1.938.04v7.9zM97.148 71.562c-1.047.08-2.194.08-3.285.08-.824 0-1.359-.604-1.359-1.531v-6.234c0-.927.546-1.532 1.359-1.532 1.091 0 2.238 0 3.285.081l-.044.672h-3.119c-.479 0-.746.335-.746.98v2.271h3.43v.712h-3.43v2.862c0 .631.267.967.746.967h3.119l.044.672zM108.901 71.374c-.044.148-.155.255-.29.255h-.812c-.134 0-.256-.107-.29-.255l-2.439-9.015h.758l1.982 7.564c.089.336.167.672.245 1.007h.3c.079-.335.157-.671.246-1.007l1.982-7.564h.758l-2.44 9.015zM124.286 71.562c-1.047.08-2.194.08-3.285.08-.825 0-1.36-.604-1.36-1.531v-6.234c0-.927.547-1.532 1.36-1.532 1.09 0 2.238 0 3.285.081l-.045.672h-3.118c-.479 0-.746.335-.746.98v2.271h3.43v.712h-3.43v2.862c0 .631.267.967.746.967h3.118l.045.672zM133.723 69.91c0 .644.278.98.802.98h2.862l.022.672c-.98.067-2.005.08-3.007.08-.969 0-1.414-.684-1.414-1.612V62.36h.735v7.55zM151.224 66.994c0 3.587-.769 4.796-2.963 4.796s-2.962-1.209-2.962-4.796.768-4.796 2.962-4.796 2.963 1.209 2.963 4.796zm-5.168 0c0 3.01.557 4.017 2.205 4.017 1.649 0 2.194-1.008 2.194-4.017 0-3.01-.545-4.017-2.194-4.017-1.648 0-2.205 1.007-2.205 4.017zM160.114 62.359c.813-.095 1.37-.108 2.573-.108 1.77 0 2.383.618 2.383 2.836 0 2.23-.613 2.834-2.305 2.834-.758 0-1.448-.053-1.927-.107v3.816h-.724v-9.271zm2.562 4.797c1.225-.014 1.648-.43 1.648-2.07 0-1.653-.423-2.082-1.648-2.082-.746 0-1.392.014-1.838.027v4.125h1.838zM180.878 62.359c.211 0 .323.148.323.39l.323 8.88h-.724l-.3-8.531h-.246l-1.993 7.269c-.056.201-.156.295-.334.295h-.735c-.168 0-.28-.094-.335-.295l-2.004-7.27h-.234l-.29 8.532h-.724l.312-8.88c0-.242.111-.39.323-.39h.88c.167 0 .267.107.323.309l1.682 6.045c.11.43.211.834.312 1.264h.245c.1-.43.211-.847.323-1.277l1.681-6.032c.045-.202.156-.31.323-.31h.869zM195.124 71.562c-1.047.08-2.194.08-3.285.08-.824 0-1.359-.604-1.359-1.531v-6.234c0-.927.546-1.532 1.359-1.532 1.091 0 2.238 0 3.285.081l-.044.672h-3.119c-.479 0-.746.335-.746.98v2.271h3.43v.712h-3.43v2.862c0 .631.267.967.746.967h3.119l.044.672zM209.573 71.253c0 .256-.1.377-.3.377h-.78c-.179 0-.279-.094-.357-.296l-2.929-7.04c-.134-.336-.334-.766-.434-1.115h-.212c.022.362.022.739.022 1.114v7.337h-.724v-8.895c0-.255.1-.376.301-.376h.757c.179 0 .279.094.357.295l2.862 6.88c.156.376.345.833.513 1.249h.234a26.753 26.753 0 0 1-.034-1.33v-7.094h.724v8.894zM221.281 63.138v8.491h-.735v-8.49h-2.55v-.78h5.847v.78z"/>
        </g>
        <path fill="#0B0B0B" d="M78 56h146v2H78z"/>
    </g>
</svg>
