<svg xmlns="http://www.w3.org/2000/svg" width="77" height="77" viewBox="0 0 77 77">
    <g fill="#000" fill-rule="nonzero">
        <path d="M24.358 43.594c-2.049 0-3.714-1.537-3.842-3.586 4.867-2.05 7.812-6.916 7.684-12.167v-.896a11.478 11.478 0 0 0-11.526-11.526H1.306c-.768 0-1.28.512-1.28 1.28 0 2.946 1.152 5.764 3.073 7.813-.256 1.28-.512 2.433-.512 3.714 0 5.122 3.073 9.733 7.684 11.782-.128 2.049-1.793 3.586-3.842 3.586-3.586 0-6.404 2.817-6.404 6.403V75.61c0 .769.513 1.28 1.281 1.28h28.175c.768 0 1.28-.511 1.28-1.28V49.997c0-3.586-2.817-6.403-6.403-6.403zM2.715 17.98h13.96c4.481 0 8.195 3.33 8.836 7.684H11.55c-4.482 0-8.196-3.33-8.836-7.684zm2.433 10.246c0-.64 0-1.281.128-1.793 1.921 1.152 4.098 1.793 6.275 1.793H25.64c0 4.354-2.69 8.196-6.788 9.605-.512.128-.896.64-.896 1.152v.769a6.5 6.5 0 0 0 1.92 4.61l-3.329.512h-2.305l-3.33-.512c1.28-1.153 1.921-2.818 1.921-4.61v-.64c0-.513-.384-1.025-.896-1.153-4.098-1.537-6.788-5.38-6.788-9.733zm12.807 34.193l-2.562 2.434-2.433-2.434 2.305-14.983h.385l2.305 14.983zM2.587 49.997c0-2.05 1.665-3.842 3.714-3.842l6.275 1.024-2.433 15.368c0 .385.128.769.384 1.153l3.842 3.842c.512.512 1.28.512 1.793 0l3.842-3.842c.256-.256.384-.64.384-1.153L17.955 47.18l6.275-1.024c2.05 0 3.714 1.793 3.714 3.842v19.21H2.587v-19.21zM28.2 74.329H2.587v-2.56H28.2v2.56z"/>
        <path d="M71.743 10.296H65.98L64.57 8.12c-.64-1.024-1.921-1.665-3.202-1.665h-2.817c-.64 0-1.153-.384-1.28-1.024C55.99 1.332 51.763-.846 47.665.307a7.872 7.872 0 0 0-5.122 5.123c-.129.512-.64 1.024-1.281 1.024h-2.818c-1.28 0-2.433.64-3.201 1.665l-1.28 2.177H28.2c-2.817 0-5.123 2.305-5.123 5.123h2.562a2.569 2.569 0 0 1 2.561-2.561h4.098c-.768 1.152-.256 2.817.897 3.457.384.256.896.385 1.28.385h31.12a2.569 2.569 0 0 0 2.562-2.562c0-.512-.128-.896-.384-1.28h3.97a2.569 2.569 0 0 1 2.561 2.56v56.35a2.569 2.569 0 0 1-2.561 2.561h-38.42v2.562h38.42c2.817 0 5.122-2.305 5.122-5.123v-56.35c0-2.817-2.305-5.122-5.122-5.122zm-37.268 3.842l2.946-4.61c.256-.256.64-.512 1.152-.512h2.818c1.665 0 3.202-1.153 3.714-2.818.896-2.69 3.714-4.226 6.403-3.33 1.665.513 2.818 1.793 3.33 3.33.512 1.665 2.049 2.818 3.714 2.818h2.817c.385 0 .769.256 1.025.512l3.073 4.61H34.475z"/>
        <path d="M48.691 5.174h2.561v2.561h-2.561zM44.465 31.683l-1.793-1.793-2.946 2.946-2.945-2.946-1.793 1.793 2.945 2.946-2.945 2.945 1.793 1.793 2.945-2.945 2.946 2.945 1.793-1.793-2.946-2.945zM58.552 57.297l-1.793-1.793-2.946 2.945-2.945-2.945-1.793 1.793 2.945 2.945-2.945 2.946 1.793 1.793 2.945-2.946 2.946 2.946 1.793-1.793-2.946-2.946z"/>
        <path d="M59.833 36.294a1.238 1.238 0 0 0-1.793 0l-5.123 5.122 1.793 1.793 2.945-2.945v2.69a5.739 5.739 0 0 1-5.763 5.762 8.308 8.308 0 0 0-8.324 8.325v1.28a5.739 5.739 0 0 1-5.763 5.763h-3.202v2.562h3.202a8.308 8.308 0 0 0 8.324-8.325v-1.28a5.739 5.739 0 0 1 5.763-5.763 8.308 8.308 0 0 0 8.325-8.325v-2.69l2.945 2.946 1.793-1.793-5.122-5.122zM67.517 21.566l-1.793-1.92-1.665 1.664c-3.074-2.818-7.94-2.561-10.758.64-2.817 3.202-2.561 7.94.64 10.758 3.202 2.817 7.94 2.561 10.758-.64 2.177-2.434 2.561-5.892 1.025-8.709l1.793-1.793zm-8.58 10.502c-2.818 0-5.124-2.306-5.124-5.123 0-2.818 2.306-5.123 5.123-5.123 1.28 0 2.433.512 3.33 1.28l-3.33 3.33-1.665-1.664-1.793 1.793 2.562 2.561c.512.512 1.28.512 1.793 0l3.842-3.842c.256.512.384 1.025.384 1.665 0 2.817-2.305 5.123-5.123 5.123zM20.516 52.558h3.842v2.561h-3.842z"/>
        <path d="M69.181 16.7v52.507H33.323v2.561h37.139c.768 0 1.28-.512 1.28-1.28V16.7h-2.56z"/>
    </g>
</svg>
