<svg xmlns="http://www.w3.org/2000/svg" width="50" height="50" viewBox="0 0 50 50">
    <g fill="#D2D2D2" fill-rule="nonzero">
        <path d="M48.063 10.016l-10.09-2.921v38.959c0 .195-.011.386-.032.575a2.63 2.63 0 0 0 2.782-1.885l9.135-31.47a2.63 2.63 0 0 0-1.795-3.258zM14.872 11.427a8.76 8.76 0 0 0-2.843 1.994h1.949a10.81 10.81 0 0 1 .894-1.994zM13.5 15.177h-2.767a8.657 8.657 0 0 0-1.065 3.372h3.43c.046-1.202.184-2.335.403-3.372zM24.666 13.42a8.76 8.76 0 0 0-2.842-1.992c.34.58.642 1.249.894 1.993h1.948zM12.03 25.433a8.76 8.76 0 0 0 2.841 1.994 10.81 10.81 0 0 1-.894-1.994H12.03zM21.84 18.549a17.682 17.682 0 0 0-.465-3.372H15.32a17.663 17.663 0 0 0-.464 3.372h6.983zM18.348 10.703c-.869 0-1.79 1.025-2.472 2.718h4.943c-.681-1.693-1.603-2.718-2.471-2.718zM13.098 20.305h-3.43a8.657 8.657 0 0 0 1.065 3.372H13.5a20.105 20.105 0 0 1-.403-3.372zM23.598 18.549h3.43a8.657 8.657 0 0 0-1.065-3.372h-2.768c.219 1.037.357 2.17.403 3.372zM18.348 28.151c.868 0 1.79-1.025 2.471-2.718h-4.943c.682 1.693 1.603 2.718 2.472 2.718zM23.195 23.677h2.768a8.657 8.657 0 0 0 1.064-3.372h-3.43a20.08 20.08 0 0 1-.402 3.372zM9.235 35.714H7.73v2.867h1.506c1.192 0 1.796-.49 1.796-1.458 0-.935-.604-1.41-1.796-1.41zM14.089 38.842h2.08l-1.05-2.27z"/>
        <path d="M32.712 0H3.984A3.95 3.95 0 0 0 .037 3.946v42.108A3.95 3.95 0 0 0 3.984 50h28.728a3.95 3.95 0 0 0 3.946-3.946V3.946A3.95 3.95 0 0 0 32.712 0zM18.348 8.946c5.779 0 10.48 4.702 10.48 10.48 0 5.78-4.701 10.482-10.48 10.482-5.78 0-10.48-4.702-10.48-10.481s4.7-10.48 10.48-10.48zM7.729 39.957v1.663a.658.658 0 0 1-.657.658H7.01a.658.658 0 0 1-.658-.658v-6.626c0-.364.295-.658.658-.658h2.226c1.957 0 3.173 1.068 3.173 2.787 0 1.748-1.216 2.834-3.173 2.834H7.729zm11.075 2.017a.658.658 0 0 1-.555.304h-.077a.658.658 0 0 1-.597-.383l-.772-1.677h-3.34l-.761 1.675a.658.658 0 0 1-.599.385h-.087a.658.658 0 0 1-.598-.932l3.033-6.626a.658.658 0 0 1 .598-.384h.129c.256 0 .489.148.597.38l3.071 6.628a.658.658 0 0 1-.042.63zm2.923.304c-.968 0-1.993-.409-2.674-1.066a.658.658 0 0 1-.008-.939l.041-.042a.658.658 0 0 1 .929 0c.403.4 1.09.67 1.712.67.695 0 1.506-.225 1.506-.858.005-.61-.363-.818-1.55-1.178-1.052-.318-2.491-.753-2.491-2.438 0-1.25 1.104-2.09 2.748-2.09.707 0 1.491.207 2.047.542a.658.658 0 0 1 .219.91l-.027.044a.658.658 0 0 1-.896.217c-.337-.201-.876-.336-1.343-.336-.632 0-1.37.186-1.37.713 0 .57.36.77 1.523 1.122 1.069.323 2.53.765 2.517 2.499 0 1.332-1.158 2.23-2.883 2.23zm5.733 0c-.968 0-1.993-.409-2.674-1.067a.657.657 0 0 1-.009-.937l.042-.042a.658.658 0 0 1 .93-.001c.402.4 1.09.67 1.711.67.695 0 1.506-.225 1.506-.858.005-.61-.364-.818-1.55-1.179-1.052-.318-2.491-.753-2.491-2.437 0-1.25 1.104-2.091 2.748-2.091.707 0 1.492.208 2.047.543a.658.658 0 0 1 .217.914l-.027.043a.658.658 0 0 1-.894.214c-.336-.201-.876-.336-1.343-.336-.633 0-1.371.186-1.371.713 0 .57.362.77 1.524 1.122 1.069.323 2.53.765 2.517 2.499 0 1.332-1.158 2.23-2.883 2.23z"/>
        <path d="M14.856 20.305a17.68 17.68 0 0 0 .464 3.372h6.055c.244-1.006.41-2.143.464-3.372h-6.983zM21.824 27.426a8.76 8.76 0 0 0 2.842-1.993h-1.948a10.808 10.808 0 0 1-.894 1.993z"/>
    </g>
</svg>
