<svg xmlns="http://www.w3.org/2000/svg" width="56" height="75" viewBox="0 0 56 75">
    <g fill="#000" fill-rule="nonzero">
        <path d="M30.756 46.507c-1.027-2.285-2.318-3.492-3.734-3.492s-2.707 1.207-3.734 3.492c-.735 1.635-1.23 3.611-1.23 4.917.001 1.786.931 2.67 1.712 3.096.783.428 1.817.627 3.252.627 1.436 0 2.47-.2 3.253-.627.78-.426 1.71-1.31 1.71-3.096 0-1.306-.494-3.282-1.229-4.917zm-3.734 6.4c-2.75 0-2.75-.822-2.75-1.483 0-.844.354-2.485 1.03-3.99.719-1.599 1.423-2.179 1.72-2.179.298 0 1.001.58 1.72 2.18.677 1.504 1.03 3.145 1.03 3.989 0 .66 0 1.483-2.75 1.483zM26.47 37.082c0-1.717-1.424-3.125-3.213-3.226-.39-1.379-1.723-2.398-3.302-2.398-.518 0-1.022.111-1.477.318a3.514 3.514 0 0 0-2.362-.894c-.825 0-1.61.287-2.219.779a3.487 3.487 0 0 0-1.684-.407c-1.304.022-2.078.537-2.497.966a3.06 3.06 0 0 0-.717 1.192c-1.8.09-3.237 1.503-3.237 3.227 0 .267.034.529.101.782-.885.591-1.451 1.567-1.451 2.641 0 .84.347 1.63.937 2.22-.18.396-.277.826-.283 1.273-.014 1.168.485 1.887.907 2.285.546.515 1.218.758 1.786.87.443 1.3 1.734 2.243 3.255 2.243.318 0 .632-.042.934-.123a3.504 3.504 0 0 0 2.254.802c1.028 0 1.981-.443 2.618-1.16.373.12.761.171 1.147.149 1.347-.082 2.12-.627 2.532-1.07.332-.357.53-.744.648-1.102 1.7-.175 3.03-1.534 3.044-3.185a3.572 3.572 0 0 0 1.202-.658c.67-.566 1.042-1.366 1.076-2.312a2.921 2.921 0 0 0-.44-1.63c.285-.48.44-1.025.44-1.582zm-7.382-3.09c.218-.241.534-.38.867-.38.628 0 1.266.412 1.118 1.277-.019.108-.02.216-.006.322-.783-.392-1.706-.675-2.678-.855.268-.038.518-.163.7-.364zm-4.001-.336a1.15 1.15 0 0 1 1.029-.62c.463 0 .876.262 1.053.668a1.1 1.1 0 0 0 .53.543 15.28 15.28 0 0 0-2.012-.133c-.38 0-.754.015-1.119.043.224-.106.409-.28.519-.5zm-3.695.023c.064-.065.26-.261.861-.271.344-.011.671.157.891.434.16.202.387.339.638.398a9.405 9.405 0 0 0-1.678.377 6.629 6.629 0 0 0-1.135.503c.095-.17.143-.364.13-.563-.007-.155.031-.615.293-.878zM9.18 35.562c.13 0 .44.176.945.123a6.125 6.125 0 0 0-1.647 1.998 1.052 1.052 0 0 0-.2-.39 1.031 1.031 0 0 1-.237-.654c0-.594.51-1.077 1.139-1.077zm6.114 11.141c-.14.457-.59.775-1.092.775-.398 0-.76-.193-.97-.517-.162-.248-.43-.397-.723-.488-.358-.112-.686.034-.873.15a1.18 1.18 0 0 1-.622.176c-.629 0-1.14-.483-1.14-1.077 0-.288-.122-.564-.339-.767a1.218 1.218 0 0 0-.83-.31c-.28.002-.838-.062-1.122-.33-.06-.057-.245-.23-.239-.735a1.07 1.07 0 0 1 .346-.783 1.04 1.04 0 0 0 .327-.958 1.089 1.089 0 0 0-.654-.796 1.078 1.078 0 0 1-.673-.98c0-.511.383-.955.911-1.056.158-.03.303-.092.43-.177a5.723 5.723 0 0 0 .168 3.529c.932 2.488 3.406 4.042 6.047 4.042a6.73 6.73 0 0 0 1.31-.13c-.12.122-.21.268-.262.432zm.333-2.682a4.34 4.34 0 0 1-1.381.226c-1.748 0-3.315-1.048-3.9-2.607-.76-2.033.37-4.272 2.52-4.992.72-.241 1.749-.38 2.82-.38h.001c2.91 0 5.06.926 5.38 1.783.184.489-.054 1.577-1.327 3.034-1.151 1.318-2.804 2.498-4.113 2.936zm5.146.294c-.097 0-.199-.014-.302-.04a1.191 1.191 0 0 0-1.01.193 1.054 1.054 0 0 0-.431.885c0 .01.025.488-.243.776-.185.2-.51.315-.966.342-.286.018-.548-.164-.679-.273-.143-.12-.313-.2-.493-.24 1.726-.654 3.747-2.13 5.126-3.832-.064.227-.05.471.05.695.058.132.088.272.088.417 0 .594-.511 1.077-1.14 1.077zm2.128-2.989a1.177 1.177 0 0 0-.662.184c.97-1.4 1.457-2.895.976-4.178a3.263 3.263 0 0 0-.802-1.19c.071-.014.492-.137.639-.137.628 0 1.139.483 1.139 1.077 0 .303-.132.585-.372.793-.236.204-.37.492-.37.795 0 .302.134.59.37.794.116.101.386.377.373.757-.036.982-.908 1.1-1.291 1.105zM50.735 40.062c0-1.074-.566-2.05-1.451-2.641.067-.253.1-.515.1-.782 0-1.724-1.436-3.138-3.236-3.227a3.06 3.06 0 0 0-.717-1.192c-.42-.429-1.193-.944-2.498-.966a3.48 3.48 0 0 0-1.683.407 3.542 3.542 0 0 0-2.219-.779c-.9 0-1.74.33-2.362.894a3.572 3.572 0 0 0-1.477-.317c-1.58 0-2.912 1.018-3.302 2.397-1.79.101-3.212 1.51-3.212 3.226 0 .558.155 1.102.44 1.582a2.923 2.923 0 0 0-.44 1.63c.034.947.407 1.747 1.077 2.313.373.315.799.521 1.201.654.012 1.652 1.342 3.013 3.044 3.189.118.357.316.744.648 1.1.411.444 1.185.99 2.532 1.07.386.024.774-.027 1.147-.147a3.514 3.514 0 0 0 2.618 1.16c.847 0 1.64-.29 2.254-.803.302.081.616.123.934.123 1.52 0 2.812-.943 3.255-2.244.568-.11 1.24-.353 1.786-.869.421-.398.921-1.117.907-2.285a3.144 3.144 0 0 0-.283-1.272c.59-.59.937-1.381.937-2.22zm-4.768-4.5c.628 0 1.14.483 1.14 1.077 0 .3-.4.905-.438 1.044a6.13 6.13 0 0 0-1.65-2c.185.026.818-.121.948-.121zm-3.965-1.72c.22-.278.551-.443.891-.434.602.01.798.206.862.271.262.263.3.723.292.874-.012.2.036.396.133.568a6.614 6.614 0 0 0-1.138-.504 9.4 9.4 0 0 0-1.678-.377c.251-.06.478-.196.638-.398zm-4.024-.138c.177-.406.59-.668 1.053-.668.437 0 .841.244 1.029.62.11.22.295.395.518.501a14.62 14.62 0 0 0-1.118-.043c-.665 0-1.345.044-2.012.133a1.1 1.1 0 0 0 .53-.543zm-2.786-.091c.33-.043.648.138.866.38.181.2.431.326.7.363-.97.18-1.892.462-2.674.853.013-.105-.363-1.408 1.108-1.596zm-2.946 7.713c-.383-.004-1.256-.123-1.291-1.105-.014-.38.256-.656.373-.757.236-.204.37-.492.37-.794 0-.303-.134-.591-.37-.795a1.039 1.039 0 0 1-.372-.793c0-.594.51-1.077 1.139-1.077.147 0 .567.124.638.137a3.265 3.265 0 0 0-.801 1.19c-.481 1.284.005 2.78.977 4.179a1.183 1.183 0 0 0-.663-.185zm5.758 4.872c-.13.11-.392.29-.679.273-.456-.028-.78-.143-.966-.342-.267-.288-.244-.738-.244-.743 0-.01.03-.53-.43-.918-.27-.228-.659-.285-1.009-.194-.103.027-.205.04-.302.04-.629 0-1.14-.483-1.14-1.077 0-.144.03-.285.089-.417.1-.223.113-.467.05-.694 1.381 1.706 3.409 3.186 5.14 3.836a1.112 1.112 0 0 0-.509.236zm-2.597-5.113c-1.273-1.457-1.51-2.545-1.328-3.034.322-.858 2.47-1.783 5.381-1.783 1.072 0 2.1.138 2.822.38 2.15.72 3.28 2.96 2.518 4.992-.584 1.56-2.15 2.607-3.9 2.607a4.34 4.34 0 0 1-1.38-.226c-1.31-.438-2.962-1.618-4.113-2.936zm12.377-.042a1.089 1.089 0 0 0-.654.796c-.065.35.057.71.327.958.22.202.342.48.345.783.007.505-.177.678-.238.735-.284.268-.84.332-1.123.33a1.197 1.197 0 0 0-.83.31 1.049 1.049 0 0 0-.339.767c0 .594-.51 1.077-1.139 1.077a1.18 1.18 0 0 1-.622-.176 1.194 1.194 0 0 0-.873-.15c-.301.064-.562.24-.723.488-.21.324-.572.517-.97.517-.503 0-.952-.318-1.093-.775a1.06 1.06 0 0 0-.261-.431c.437.087.876.13 1.31.13 2.641 0 5.115-1.555 6.047-4.043a5.725 5.725 0 0 0 .168-3.53c.127.086 1.275.193 1.341 1.233.026.421-.264.807-.673.981zM28.125 6.618c-2.129 0-3.86 1.676-3.86 3.737 0 .937.361 2.62.86 4.003.797 2.213 1.779 3.29 3 3.29s2.203-1.077 3-3.29c.499-1.383.86-3.066.86-4.003 0-2.06-1.731-3.737-3.86-3.737zm0 8.708c-.675-.76-1.575-3.701-1.575-4.97 0-.841.707-1.525 1.575-1.525s1.575.684 1.575 1.524c0 1.27-.9 4.211-1.575 4.97zM21 19.154c-.638-.843-1.519-1.732-2.093-2.114a2.957 2.957 0 0 0-2.193-.444 2.911 2.911 0 0 0-1.871 1.204 2.832 2.832 0 0 0 .776 3.98c.575.383 1.743.857 2.779 1.127.321.084.973.255 1.644.255.662 0 1.343-.166 1.743-.744.807-1.164-.39-2.745-.784-3.264zm-4.207.935c-.382-.254-.45-.745-.223-1.14.17-.294.679-.537 1.163-.217.685.456 1.682 1.663 2.072 2.37-.814-.096-2.327-.558-3.012-1.013zM40.304 17.8a2.91 2.91 0 0 0-1.87-1.204 2.957 2.957 0 0 0-2.194.444c-.574.382-1.455 1.27-2.093 2.114-.394.52-1.592 2.1-.785 3.264.4.578 1.08.744 1.743.744.671 0 1.323-.17 1.644-.255 1.036-.27 2.204-.744 2.779-1.126a2.832 2.832 0 0 0 .776-3.98zm-1.95 2.288c-.685.456-2.199.918-3.013 1.013.39-.706 1.387-1.913 2.073-2.369.535-.379 1.037.036 1.162.218a.81.81 0 0 1-.222 1.138z"/>
        <path d="M53.665 36.283a27.191 27.191 0 0 0-2.057-22.267 27.853 27.853 0 0 0-9.309-9.755 1.11 1.11 0 0 0-1.526.337 1.095 1.095 0 0 0 .34 1.517 25.61 25.61 0 0 1 4.27 3.39 3.85 3.85 0 0 0-.898.555c-1.266 1.043-1.817 2.77-1.341 4.198.134.402.396.926.91 1.406a3.314 3.314 0 0 0-1.267 1.93c-.413 1.778.625 3.803 2.315 4.516a3.355 3.355 0 0 0 2.322.115c.07.57.262 1.007.44 1.311 1.504 2.575 4.55 1.616 4.953 1.444a25.011 25.011 0 0 1-1.244 10.591c-.478 1.387-.387 2.905.248 4.166a10.327 10.327 0 0 1 1.115 4.695c0 3.966-1.37 6.856-4.071 8.589-2.346 1.505-5.163 1.8-6.633 1.841a3.358 3.358 0 0 0-3.076 2.223l-.36.992a1.96 1.96 0 0 1-1.84 1.285H35.77v-.886c0-.607-.495-1.099-1.106-1.099-.61 0-1.105.492-1.105 1.1v.885h-2.516v-.886c0-.607-.495-1.099-1.106-1.099-.61 0-1.105.492-1.105 1.1v.885h-2.516v-.886c0-.607-.495-1.099-1.106-1.099-.61 0-1.105.492-1.105 1.1v.885h-2.516v-.886c0-.607-.495-1.099-1.105-1.099s-1.106.492-1.106 1.1v.885h-1.186a1.96 1.96 0 0 1-1.84-1.285l-.36-.992a3.357 3.357 0 0 0-3.077-2.223c-1.47-.041-4.286-.336-6.632-1.841-2.702-1.733-4.071-4.623-4.071-8.59 0-1.649.375-3.229 1.114-4.694.636-1.26.727-2.78.249-4.166a25.011 25.011 0 0 1-1.363-8.208c.003-2.43.357-4.81 1.034-7.085.145.015.947.109 1.756-.182.449.788.627 1.49.504 2.007-.077.321-.273.576-.585.757-.527.306-.704.98-.396 1.503.206.35.895.701 1.512.394.859-.428 1.405-1.244 1.62-2.147.03-.127.054-.255.07-.384.78.237 1.574.199 2.32-.116 1.689-.713 2.727-2.739 2.314-4.516a3.314 3.314 0 0 0-1.268-1.93c.514-.48.777-1.004.911-1.406.476-1.429-.076-3.155-1.341-4.198a3.849 3.849 0 0 0-.9-.555c4.79-4.713 11.108-7.308 17.81-7.308 3.292 0 6.497.624 9.526 1.854.565.23 1.21-.04 1.441-.601a1.096 1.096 0 0 0-.605-1.433A27.41 27.41 0 0 0 27.574 0C20.229 0 13.309 2.862 8.088 8.06 2.883 13.243.011 20.097 0 27.36a27.191 27.191 0 0 0 1.482 8.923c.287.833.239 1.733-.133 2.47A12.495 12.495 0 0 0 0 44.431c0 4.761 1.71 8.272 5.084 10.436 2.797 1.794 6.067 2.143 7.767 2.191.472.014.898.324 1.06.772l.36.992a4.177 4.177 0 0 0 3.92 2.736h1.186v.886c0 .607.495 1.099 1.106 1.099.61 0 1.105-.492 1.105-1.099v-.886h2.516v.886c0 .607.495 1.099 1.106 1.099.61 0 1.105-.492 1.105-1.099v-.886h2.516v.886c0 .607.495 1.099 1.106 1.099.61 0 1.105-.492 1.105-1.099v-.886h2.516v.886c0 .607.495 1.099 1.106 1.099.61 0 1.105-.492 1.105-1.099v-.886h1.186c1.75 0 3.326-1.1 3.92-2.736l.36-.992a1.175 1.175 0 0 1 1.06-.772c.323-.009.703-.029 1.125-.068v4.459c0 5.873-4.51 10.718-10.27 11.295a6.603 6.603 0 0 0-.819-1.034c.276.129.598.195.97.195.485 0 1.05-.11 1.695-.33.937-.321 1.957-.853 2.48-1.294a2.894 2.894 0 0 0 1.026-1.988 2.888 2.888 0 0 0-.688-2.126 2.953 2.953 0 0 0-4.14-.337c-.522.441-1.216 1.355-1.687 2.222-.698 1.285-.825 2.295-.384 3.011a6.62 6.62 0 0 0-4.03-1.353 6.62 6.62 0 0 0-4.03 1.353c.441-.716.314-1.726-.384-3.011-.47-.867-1.164-1.78-1.687-2.222a2.953 2.953 0 0 0-4.14.337 2.888 2.888 0 0 0-.688 2.126 2.894 2.894 0 0 0 1.027 1.988c.522.44 1.542.973 2.48 1.294.644.22 1.21.33 1.695.33.371 0 .693-.066.97-.195a6.612 6.612 0 0 0-.82 1.034c-5.76-.577-10.27-5.422-10.27-11.295v-1.133c0-.606-.495-1.098-1.105-1.098s-1.106.492-1.106 1.098v1.133C9.515 68.922 15.632 75 23.15 75h8.847c7.518 0 13.634-6.079 13.634-13.55v-4.802c1.416-.313 2.987-.854 4.432-1.78 3.373-2.164 5.084-5.675 5.084-10.436 0-1.995-.454-3.906-1.35-5.68-.37-.736-.42-1.636-.132-2.469zm-7.7-16.195c-.71-.3-1.197-1.252-1.024-1.999.223-.958 1.493-1.135 2.334-1.145.159.731.508 1.397.996 1.94-.502.67-1.395 1.589-2.305 1.204zm1.427-5.365c-1.17-.133-1.946-.544-2.15-1.156-.19-.57.091-1.351.654-1.815.297-.244.755-.469 1.31-.25a25.59 25.59 0 0 1 1.196 1.57 4.211 4.211 0 0 0-1.01 1.65zm2 1.218c.017-.32.11-.623.262-.892l.028.047a24.973 24.973 0 0 1 1.437 2.98 2.061 2.061 0 0 1-1.727-2.135zm1.947 7.161c-.67.047-1.301-.227-1.57-.68-.311-.526-.172-1.36.378-2.325.842.324 1.603.197 1.745.183.225.753.415 1.517.568 2.288-.322.428-.872.517-1.12.534zM9.181 20.088c-.91.385-1.803-.534-2.305-1.205a4.244 4.244 0 0 0 .996-1.939c.841.01 2.111.187 2.334 1.145.174.747-.315 1.7-1.025 1.999zM7.93 11.507c.562-.227 1.024-.001 1.322.245.563.464.844 1.244.654 1.815-.204.612-.98 1.023-2.15 1.156a4.215 4.215 0 0 0-1.014-1.654c.375-.533.77-1.055 1.188-1.562zM5.488 15.04c.154.271.25.577.267.9a2.062 2.062 0 0 1-1.739 2.138 24.88 24.88 0 0 1 1.472-3.038zm29.618 52.466c.136-.115.658-.382 1.023.083.366.466.064.893-.084 1.018-.489.412-1.684.924-2.389 1.068.259-.668.96-1.756 1.45-2.169zm-16.004 1.1c-.148-.124-.463-.54-.084-1.017.379-.477.887-.198 1.023-.083.49.413 1.192 1.501 1.45 2.17-.705-.145-1.9-.657-2.39-1.07zm5.796 4.197a4.412 4.412 0 0 1 2.676-.895c.993 0 1.923.324 2.676.895h-5.352z"/>
        <circle cx="27.574" cy="67.279" r="1.103"/>
        <path d="M31.92 24.083h-2.628v-3.089c0-.63-.522-1.141-1.167-1.141s-1.167.51-1.167 1.141v3.089h-2.629c-.645 0-1.167.51-1.167 1.141 0 .63.522 1.141 1.167 1.141h2.629v6.685c0 .63.522 1.141 1.167 1.141s1.167-.51 1.167-1.141v-6.685h2.629c.645 0 1.167-.51 1.167-1.14 0-.631-.522-1.142-1.167-1.142zM24.079 17.059l-2.285-3.358a1.059 1.059 0 0 0-1.478-.278c-.485.334-.609 1-.277 1.488l2.285 3.358c.562.783 1.294.404 1.478.278.485-.334.608-1 .277-1.488zM34.832 13.424a1.055 1.055 0 0 0-1.479.28l-2.285 3.38a1.086 1.086 0 0 0 .277 1.497c.184.128.981.416 1.478-.28l2.285-3.38a1.086 1.086 0 0 0-.276-1.497zM19.789 25.368H17.71c-.644 0-1.167.493-1.167 1.103 0 .609.523 1.103 1.167 1.103h2.078c.644 0 1.167-.494 1.167-1.103 0-.61-.523-1.103-1.167-1.103zM37.436 25.368h-2.078c-.644 0-1.167.493-1.167 1.103 0 .609.523 1.103 1.167 1.103h2.078c.644 0 1.167-.494 1.167-1.103 0-.61-.523-1.103-1.167-1.103z"/>
    </g>
</svg>
