<svg xmlns="http://www.w3.org/2000/svg" width="77" height="77" viewBox="0 0 77 77">
    <g fill="#000" fill-rule="nonzero">
        <path d="M37 64h3v3h-3z"/>
        <path d="M75.717 66.733h-1.284v-46.2A5.133 5.133 0 0 0 69.3 15.4h-7.7V5.133A5.133 5.133 0 0 0 56.467 0H20.533A5.133 5.133 0 0 0 15.4 5.133V15.4H7.7a5.133 5.133 0 0 0-5.133 5.133v46.2H1.283c-.708 0-1.283.575-1.283 1.284v3.85A5.133 5.133 0 0 0 5.133 77h66.734A5.133 5.133 0 0 0 77 71.867v-3.85c0-.71-.575-1.284-1.283-1.284zm-57.75-61.6a2.567 2.567 0 0 1 2.566-2.566h35.934a2.567 2.567 0 0 1 2.566 2.566v5.134H17.967V5.133zm0 7.7h41.066V50.05a2.567 2.567 0 0 1-2.566 2.567H20.533a2.567 2.567 0 0 1-2.566-2.567V12.833zm2.566 42.35h35.934A5.133 5.133 0 0 0 61.6 50.05V23.1h5.133v35.933H10.267V23.1H15.4v26.95a5.133 5.133 0 0 0 5.133 5.133zm-15.4-34.65A2.567 2.567 0 0 1 7.7 17.967h7.7v2.566H8.983c-.708 0-1.283.575-1.283 1.284v38.5c0 .708.575 1.283 1.283 1.283h59.034c.708 0 1.283-.575 1.283-1.283v-38.5c0-.71-.575-1.284-1.283-1.284H61.6v-2.566h7.7a2.567 2.567 0 0 1 2.567 2.566v46.2H50.05c-.34 0-.667.135-.907.375L46.952 69.3H30.048l-2.19-2.192a1.283 1.283 0 0 0-.908-.375H5.133v-46.2zm69.3 51.334a2.567 2.567 0 0 1-2.566 2.566H5.133a2.567 2.567 0 0 1-2.566-2.566V69.3h23.852l2.19 2.19c.241.241.567.377.908.377h17.966c.34 0 .667-.136.908-.376l2.19-2.191h23.852v2.567z"/>
        <path d="M22 41h33v3H22zM22 46h31v3H22zM29 36h26v3H29zM20 5h3v3h-3zM25 5h3v3h-3zM31 5h3v3h-3zM24 36h3v3h-3zM34 21.105L32.5 19l-5 3.947c-.552.436-.664 1.261-.25 1.842.071.1.155.189.25.264l5 3.947 1.5-2.105L30.334 24 34 21.105zM49.75 23.21a1.29 1.29 0 0 0-.25-.263L44.5 19 43 21.105 46.666 24 43 26.895 44.5 29l5-3.947c.552-.436.664-1.261.25-1.842zM34.742 30.325l5.134-12.832 2.383.953-5.134 12.832z"/>
    </g>
</svg>
